<svg xmlns="http://www.w3.org/2000/svg" viewBox="0 0 1254 1254" width="1254" height="1254" role="img" aria-label="4torm reverse traced logo smooth">
  <defs>
    <linearGradient id="stormGradient" x1="116" y1="720" x2="1103" y2="480" gradientUnits="userSpaceOnUse">
      <stop offset="0" stop-color="#36F1D1"/>
      <stop offset="0.48" stop-color="#19CFE7"/>
      <stop offset="1" stop-color="#238BFF"/>
    </linearGradient>
  </defs>
  <g fill="url(#stormGradient)" shape-rendering="geometricPrecision">
    <path d="M 455.85 789.22 L 426.45 778.27 L 408.60 769.24 L 392.85 759.24 L 373.44 744.00 L 344.06 714.00 L 323.30 685.00 L 311.76 664.00 L 300.22 635.00 L 290.53 599.00 L 286.33 574.00 L 285.22 535.00 L 287.38 502.00 L 294.73 461.00 L 303.36 429.00 L 311.76 406.00 L 325.41 374.00 L 349.55 330.00 L 380.00 284.00 L 400.76 258.00 L 424.91 232.00 L 460.05 198.53 L 492.24 172.00 L 529.35 145.76 L 552.45 131.76 L 598.65 107.73 L 645.90 87.78 L 666.90 80.78 L 718.35 67.77 L 755.10 61.55 L 808.65 57.55 L 846.45 57.50 L 883.20 59.55 L 907.35 62.77 L 908.60 66.00 L 903.15 69.23 L 840.15 84.77 L 807.60 94.77 L 776.10 108.76 L 740.09 129.00 L 696.30 160.53 L 677.96 177.00 L 644.85 214.66 L 628.85 237.00 L 621.28 251.00 L 628.05 250.23 L 677.40 230.77 L 711.00 221.55 L 746.70 217.50 L 808.65 218.55 L 846.45 224.77 L 881.10 234.77 L 907.35 245.73 L 931.50 257.76 L 973.86 284.00 L 999.03 304.00 L 1017.60 321.51 L 1042.80 350.66 L 1058.80 373.00 L 1070.35 392.00 L 1091.34 432.00 L 1097.64 447.00 L 1108.14 480.00 L 1116.77 520.00 L 1123.07 588.00 L 1123.07 609.00 L 1121.55 615.80 L 1119.45 615.29 L 1118.17 613.00 L 1098.69 544.00 L 1090.29 521.00 L 1077.69 493.00 L 1063.00 466.00 L 1044.90 439.66 L 1015.99 405.00 L 989.25 379.94 L 967.56 363.00 L 933.60 340.76 L 900.00 323.77 L 867.45 311.77 L 837.00 304.55 L 801.30 299.55 L 758.25 299.50 L 739.35 301.55 L 705.75 308.77 L 688.95 313.77 L 660.60 324.77 L 620.70 345.76 L 596.19 363.00 L 585.00 372.53 L 566.66 390.00 L 555.60 402.66 L 533.30 433.00 L 521.79 452.00 L 506.01 483.00 L 494.46 516.00 L 477.90 587.68 L 476.85 587.70 L 473.46 580.00 L 463.78 547.00 L 458.53 508.00 L 458.48 484.00 L 461.68 456.00 L 467.16 432.00 L 476.61 403.00 L 487.57 377.00 L 487.58 374.00 L 478.95 380.53 L 457.95 400.51 L 447.45 412.66 L 431.45 435.00 L 416.72 460.00 L 401.01 496.00 L 392.61 522.00 L 388.18 541.00 L 383.92 580.00 L 383.92 608.00 L 386.08 630.00 L 393.66 662.00 L 407.31 699.00 L 426.20 736.00 L 457.15 784.00 L 458.34 787.00 Z"/>
    <path d="M 477.90 1203.05 L 436.95 1203.45 L 386.55 1199.44 L 384.38 1198.00 L 385.50 1196.60 L 444.30 1182.23 L 484.20 1170.23 L 508.35 1160.27 L 539.85 1144.24 L 565.41 1128.00 L 596.01 1105.00 L 617.55 1083.34 L 637.36 1054.00 L 634.35 1053.78 L 607.05 1065.23 L 568.20 1079.22 L 554.55 1082.45 L 507.30 1089.45 L 460.05 1090.45 L 423.30 1085.45 L 385.50 1075.23 L 362.40 1066.23 L 330.90 1051.24 L 294.84 1029.00 L 255.30 997.47 L 224.36 965.00 L 195.20 926.00 L 174.24 892.00 L 158.46 860.00 L 138.51 804.00 L 126.73 756.00 L 121.48 724.00 L 119.66 696.00 L 121.95 694.89 L 124.29 698.00 L 134.31 726.00 L 154.26 773.00 L 168.95 801.00 L 182.60 823.00 L 203.85 852.34 L 225.41 879.00 L 264.24 917.00 L 279.45 929.47 L 303.24 947.00 L 327.75 962.24 L 361.35 979.20 L 383.40 988.22 L 408.60 996.23 L 436.95 1002.45 L 473.70 1006.50 L 508.35 1005.45 L 530.40 1002.45 L 549.30 998.23 L 598.65 982.23 L 614.40 975.20 L 639.60 961.24 L 666.21 943.00 L 679.50 932.47 L 702.60 910.49 L 722.55 888.34 L 753.25 846.00 L 771.90 814.92 L 774.47 818.00 L 774.52 849.00 L 769.22 885.00 L 763.74 905.00 L 742.37 962.00 L 769.24 938.00 L 782.89 923.00 L 812.05 884.00 L 836.23 841.00 L 847.74 814.00 L 860.57 773.00 L 865.82 747.00 L 868.97 721.00 L 869.02 681.00 L 864.77 649.00 L 856.48 607.00 L 856.76 601.00 L 859.27 600.00 L 868.50 607.69 L 891.60 634.66 L 903.40 652.00 L 917.04 677.00 L 928.59 707.00 L 933.84 727.00 L 940.42 773.00 L 940.37 808.00 L 937.22 839.00 L 930.92 871.00 L 924.39 895.00 L 907.56 940.00 L 889.75 975.00 L 875.05 999.00 L 854.85 1027.34 L 836.44 1049.00 L 802.35 1083.47 L 779.25 1102.47 L 752.31 1122.00 L 729.90 1136.24 L 702.60 1151.24 L 667.95 1167.23 L 645.90 1175.22 L 592.35 1190.23 L 554.55 1197.45 Z"/>
    <path d="M 465.30 937.23 L 427.50 937.45 L 405.45 934.45 L 390.75 931.23 L 359.25 920.23 L 334.05 908.24 L 310.59 895.00 L 281.55 874.47 L 250.61 847.00 L 225.90 819.34 L 209.90 798.00 L 193.10 771.00 L 173.16 732.00 L 154.26 679.00 L 145.63 644.00 L 138.28 603.00 L 136.13 570.00 L 136.13 538.00 L 141.43 482.00 L 146.91 454.00 L 154.26 428.00 L 164.76 399.00 L 175.26 375.00 L 204.69 320.00 L 230.10 283.66 L 249.56 260.00 L 279.45 228.51 L 300.45 210.53 L 351.90 174.88 L 354.12 176.00 L 353.43 178.00 L 305.70 237.66 L 284.45 269.00 L 262.41 309.00 L 239.32 363.00 L 225.43 415.00 L 215.98 473.00 L 214.88 520.00 L 215.98 546.00 L 219.13 574.00 L 227.76 611.00 L 236.16 636.00 L 248.76 666.00 L 264.50 696.00 L 288.65 733.00 L 314.66 766.00 L 349.29 800.00 L 365.55 813.06 L 405.45 839.24 L 429.60 851.27 L 455.85 861.23 L 486.30 869.23 L 512.55 873.45 L 551.40 874.50 L 578.70 870.45 L 594.45 866.55 L 598.02 868.00 L 595.99 873.00 L 578.70 890.47 L 566.46 901.00 L 544.05 915.24 L 528.30 922.23 L 501.00 931.23 L 476.85 936.45 Z"/>
    <path d="M 885.30 1081.19 L 882.93 1081.00 L 882.02 1079.00 L 920.20 1021.00 L 948.58 970.00 L 961.13 941.00 L 969.53 915.00 L 979.22 878.00 L 985.52 843.00 L 988.67 813.00 L 989.78 782.00 L 985.52 726.00 L 978.17 689.00 L 972.69 671.00 L 961.14 640.00 L 945.40 607.00 L 926.50 576.00 L 903.15 544.66 L 892.65 532.51 L 860.10 502.53 L 840.15 487.76 L 813.90 471.76 L 781.35 456.77 L 756.15 448.77 L 722.55 443.55 L 703.65 443.50 L 681.60 445.55 L 660.60 450.45 L 655.35 450.45 L 653.06 449.00 L 653.81 445.00 L 669.00 431.53 L 686.85 418.76 L 703.65 408.76 L 741.45 393.77 L 771.90 387.55 L 787.65 386.50 L 818.10 387.55 L 833.85 389.77 L 869.55 399.77 L 889.50 407.77 L 909.45 417.76 L 937.11 435.00 L 959.85 452.53 L 992.40 483.69 L 1016.80 515.00 L 1036.75 546.00 L 1051.44 574.00 L 1061.94 598.00 L 1072.44 629.00 L 1081.07 665.00 L 1085.27 698.00 L 1085.38 717.00 L 1087.07 726.00 L 1083.17 780.00 L 1080.02 799.00 L 1071.38 832.00 L 1060.88 862.00 L 1052.49 881.00 L 1035.66 914.00 L 1016.80 946.00 L 996.85 976.00 L 976.65 1002.34 L 964.54 1016.00 L 934.65 1044.47 Z"/>
    <path d="M 638.55 807.23 L 628.05 807.45 L 604.95 804.45 L 578.70 796.27 L 559.80 786.24 L 549.30 778.47 L 537.26 767.00 L 527.25 754.34 L 514.41 730.00 L 509.16 714.00 L 505.78 696.00 L 504.73 671.00 L 511.26 637.00 L 517.56 620.00 L 528.02 599.00 L 544.05 575.66 L 569.25 549.53 L 594.45 531.76 L 625.95 516.77 L 638.55 512.77 L 663.75 507.55 L 697.35 506.55 L 723.60 510.77 L 742.50 517.76 L 754.05 523.76 L 766.65 532.53 L 780.79 546.00 L 788.95 557.00 L 798.38 574.00 L 797.85 578.00 L 795.00 579.88 L 791.85 579.23 L 777.15 570.73 L 754.05 560.78 L 737.25 556.55 L 721.50 554.50 L 705.75 554.55 L 682.65 558.77 L 664.80 564.77 L 649.05 572.76 L 631.20 585.53 L 622.31 594.00 L 609.95 610.00 L 601.59 625.00 L 594.21 645.00 L 590.83 661.00 L 590.83 688.00 L 594.21 701.00 L 600.54 716.00 L 609.15 728.34 L 617.55 736.47 L 630.15 745.24 L 638.55 749.23 L 653.25 754.23 L 665.85 756.45 L 700.50 755.17 L 722.55 749.23 L 738.30 742.24 L 751.95 734.24 L 786.60 708.88 L 789.75 710.66 L 790.45 714.00 L 780.55 731.00 L 760.41 755.00 L 740.40 772.47 L 725.70 782.24 L 696.30 796.23 L 680.55 801.23 L 660.60 805.45 Z"/>
  </g>
</svg>
